<?xml version="1.0" standalone="no"?>
<!DOCTYPE svg PUBLIC "-//W3C//DTD SVG 20010904//EN"
 "http://www.w3.org/TR/2001/REC-SVG-20010904/DTD/svg10.dtd">
<svg version="1.0" xmlns="http://www.w3.org/2000/svg"
 width="128.000000pt" height="128.000000pt" viewBox="0 0 128.000000 128.000000"
 preserveAspectRatio="xMidYMid meet">
<metadata>
Created by potrace 1.14, written by Peter Selinger 2001-2017
</metadata>
<g transform="translate(0.000000,128.000000) scale(0.100000,-0.100000)"
fill="#000000" stroke="none">
<path d="M499 1245 c-148 -36 -290 -136 -376 -265 -112 -167 -133 -410 -51
-587 81 -176 232 -304 418 -354 62 -17 227 -20 288 -5 60 14 182 67 182 79 0
4 7 7 16 7 9 0 53 37 98 83 91 92 144 184 170 297 21 90 14 244 -14 330 -62
184 -210 334 -392 397 -89 31 -251 39 -339 18z"/>
</g>
</svg>
